<svg id="SvgjsSvg1001" width="288" height="288" xmlns="http://www.w3.org/2000/svg" version="1.1" xmlns:xlink="http://www.w3.org/1999/xlink" xmlns:svgjs="http://svgjs.com/svgjs"><defs id="SvgjsDefs1002"></defs><g id="SvgjsG1008"><svg xmlns="http://www.w3.org/2000/svg" fill="none" viewBox="0 0 24 24" width="288" height="288"><path fill="#ffffff" d="M4.302 17.77c1.86-.812 2.435-.785 2.506-3.256.072-2.47-.337-3.257.71-4.865 1.047-1.609 3.033-6.59 5.095-7.449 2.062-.858.786 1.236.485 2.62-.301 1.383-.674 5.09.112 6.14.786 1.052 2.731 3.181 3.257 3.594.526.414.26 1.797-3.37 2.435-3.63.638-5.354 0-5.354 0s4.079 1.761 7.673.598c3.594-1.164 2.66-2.359 2.66-2.359s4.68-.638 3.818 1.761c-.863 2.4-4.946 4.416-8.747 4.717-3.796.301-10.984-.036-11.132-1.985 0 0-.346-.8 2.287-1.95z" class="colorBD9E59 svgShape"></path></svg></g></svg>