<svg id="SvgjsSvg1011" width="288" height="288" xmlns="http://www.w3.org/2000/svg" version="1.1" xmlns:xlink="http://www.w3.org/1999/xlink" xmlns:svgjs="http://svgjs.com/svgjs"><defs id="SvgjsDefs1012"></defs><g id="SvgjsG1013"><svg xmlns="http://www.w3.org/2000/svg" viewBox="0 0 21 21" width="288" height="288"><defs><linearGradient id="a" x1="49.276%" x2="49.276%" y1="1.136%" y2="99.714%"><stop offset="0%" stop-color="#ffffff" class="stopColorCDBD8F svgShape"></stop><stop offset="18.14%" stop-color="#ffffff" class="stopColorCAB683 svgShape"></stop><stop offset="43.6%" stop-color="#ffffff" class="stopColorC5A76B svgShape"></stop><stop offset="76.04%" stop-color="#ffffff" class="stopColor9B7F48 svgShape"></stop><stop offset="100%" stop-color="#ffffff" class="stopColor7A5F2C svgShape"></stop></linearGradient></defs><path fill="url(#a)" d="m10.833,0.639c4.577,0 8.037,5.838 4.267,10.599c0.983,0.381 2.109,1.027 3.099,2.067c1.444,1.516 2.551,3.817 2.551,7.195l-1.5,0c0,-3.021 -0.977,-4.943 -2.137,-6.16c-1.176,-1.235 -2.591,-1.797 -3.52,-1.995l-1.375,-0.293l1.009,-0.979l0.001,0c4.124,-3.999 1.065,-8.934 -2.395,-8.934l0,-1.5zm-1.666,-0.139l0,19.556l-9.167,0c0,-6.4 4.167,-8.889 6.25,-9.333l0,-0.001c-4.583,-4.444 -1.25,-10.222 2.917,-10.222z"></path></svg></g></svg>